<?xml version="1.0" encoding="utf-8"?>
<!-- Generator: Adobe Illustrator 24.1.1, SVG Export Plug-In . SVG Version: 6.00 Build 0)  -->
<svg version="1.1" id="emoji" xmlns="http://www.w3.org/2000/svg" xmlns:xlink="http://www.w3.org/1999/xlink" x="0px" y="0px"
	 viewBox="0 0 72 72" style="enable-background:new 0 0 72 72;" xml:space="preserve">
<style type="text/css">
	.st0{fill:#3F3F3F;}
	.st1{fill:none;stroke:#000000;stroke-width:2;stroke-linecap:round;stroke-linejoin:round;stroke-miterlimit:10;}
</style>
<g id="color">
	<path class="st0" d="M47.3,44.4l2.7,2.7l5.6,1.2l-1.3,4.1l0.8,3.2l2.2-0.7l2.6-5l1.2-5.2c-1.1-1.7-2.4-3.3-3.2-5
		c-1.8-1.4-2.5-3.7-3.7-5.9L47.3,44.4z"/>
	<path class="st0" d="M31,43.8l-1.8,2.8l-1.6,7.5l-1.6,1.8L23,54.8l-0.5-5c0,0,0.8-4.8,1.3-6.8s5.1-2.4,5.1-2.4L31,43.8z"/>
	<path class="st0" d="M67.6,16.8l-2.7-0.6l-4.3,1.6l-0.7,4.4l-0.4,3.1l-3.3,3.8l-2.6,1.5l-1.8,0c0-0.1-0.1-0.1-0.1-0.2h-3.3l-5.3-2
		l-6-2.1l-9.9,0.5l-6.4,1.2l-6.3-2.8l-4.3-2.8l-3.6,0.7l1.8,3.4l-3.3,5.1L6,36.1l5.1,0.1l1.8,0.4l3.4-1.2L16,38.7l1.1,2.7l-1.1,2
		l-3.7,2.9l-0.5,4.1l2.8,3.3c0,0,3.9-0.3,2.3-4.6l2.8-2.7l4.7-1.2l2-1.2l4.4,0.8h8.4l2.1,3.4l-1.4,4.7l0.1,2.8l2.6-0.3l2.9-3.9
		l1.9-2.6v-3.5l3.6-3.6l2.3-4.9c0,0,0-0.1,0-0.4l0,0c0,0,6.1-3,8.3-7.5c3.6-5.1-0.7-10,4.4-8.3C67.7,21,69.2,18.4,67.6,16.8
		L67.6,16.8z"/>
</g>
<g id="line">
	<path class="st1" d="M12.5,35.7c-2.3,1-4.9,0.8-4.9,0.8c-1.7,0.1-3.1-4-2.5-4.7l3.3-5.1l-1.8-3.4c0,0,5-1.4,7.9,2.1
		c0.3,0.4,0.8,0.7,1.3,1c0,0,0.1,0,0.1,0c2.6,1.3,5.5,1.6,8.4,1c7.2-1.5,14.1-1.4,21.7,2.2c7.6,3.6,14.8-2.3,13.9-7.5
		c-0.8-4.6,3.6-7.6,6.8-5"/>
	<path class="st1" d="M16,48.8c0.6-2.2,8.5-3.6,8.5-3.6s3.2-1.2,1.4-4.5"/>
	<path class="st1" d="M18.3,33.2c-1.5,1.8-3.9,4.8-0.4,9.2c0,0-6.8,2.9-6,8c0,0,0.4,2.5,2.4,2.4"/>
	<path class="st1" d="M23.5,50c-1.2,7.3,2.4,6.1,3,5.7c1.1-0.7,1.8-9.9,4-11.3c1.6-1.1,8.2-0.3,8.2-0.3"/>
	<path class="st1" d="M38.4,41.3c0.1,1.7,0.8,3.4,1.7,4.8c0.7,1,1.8,2.3,1.5,3c-4.5,8.5,0.6,7,1.1,6.2c3.2-5.9,6.1-4.1,4.6-10.5
		c0,0,5.3-1.8,5.5-8"/>
	<path class="st1" d="M48.2,45.6c0,0,2.4,3.2,7.8,2.7c0,0-3.3,6.8,0,7.6c1.9,0.5,4.7-11.2,4.7-11.2S58,42.3,57,40.4"/>
</g>
</svg>
