<svg xmlns="http://www.w3.org/2000/svg" width="807" height="646"><rect width="807" height="646" x="0" y="0" fill="#ffd3da" id="backgorund"/><g transform="translate(26,32)" id="visualization"><g><rect x="0" y="0" height="3.40650406504065" width="5" fill="black"><title>domestic cat: 1</title></rect><rect x="0" y="8.40650406504065" height="3.40650406504065" width="5" fill="black"><title>wild cat: 1</title></rect><rect x="0" y="16.8130081300813" height="6.8130081300813" width="5" fill="black"><title>jungle cat: 2</title></rect><rect x="0" y="28.6260162601626" height="6.8130081300813" width="5" fill="black"><title>sand cat: 2</title></rect><rect x="0" y="40.4390243902439" height="6.8130081300813" width="5" fill="black"><title>Geoffroy's cat: 2</title></rect><rect x="0" y="52.2520325203252" height="6.8130081300813" width="5" fill="black"><title>ocelot: 2</title></rect><rect x="0" y="64.0650406504065" height="6.8130081300813" width="5" fill="black"><title>serval: 2</title></rect><rect x="367" y="62.5" height="6.8130081300813" width="5" fill="black"><title>Leptailurus: 2</title></rect><rect x="0" y="75.8780487804878" height="6.8130081300813" width="5" fill="black"><title>Canada lynx: 2</title></rect><rect x="0" y="87.6910569105691" height="6.8130081300813" width="5" fill="black"><title>Eurasian lynx: 2</title></rect><rect x="0" y="99.5040650406504" height="6.8130081300813" width="5" fill="black"><title>bobcat: 2</title></rect><rect x="0" y="111.3170731707317" height="6.8130081300813" width="5" fill="black"><title>Pallas's cat: 2</title></rect><rect x="367" y="74.3130081300813" height="6.8130081300813" width="5" fill="black"><title>Otocolobus: 2</title></rect><rect x="0" y="123.130081300813" height="6.8130081300813" width="5" fill="black"><title>leopard cat: 2</title></rect><rect x="0" y="134.9430894308943" height="6.8130081300813" width="5" fill="black"><title>puma: 2</title></rect><rect x="0" y="146.7560975609756" height="6.8130081300813" width="5" fill="black"><title>jaguarundi: 2</title></rect><rect x="0" y="158.5691056910569" height="10.21951219512195" width="5" fill="black"><title>Asiatic golden cat: 3</title></rect><rect x="0" y="173.78861788617886" height="10.21951219512195" width="5" fill="black"><title>Colocolo: 3</title></rect><rect x="0" y="189.0081300813008" height="10.21951219512195" width="5" fill="black"><title>margay: 3</title></rect><rect x="0" y="204.22764227642276" height="10.219512195121979" width="5" fill="black"><title>rusty-spotted cat: 3</title></rect><rect x="0" y="219.44715447154474" height="10.219512195121979" width="5" fill="black"><title>jaguar: 3</title></rect><rect x="0" y="234.6666666666667" height="10.219512195121979" width="5" fill="black"><title>marbled cat: 3</title></rect><rect x="367" y="86.1260162601626" height="10.219512195121979" width="5" fill="black"><title>Pardofelis: 3</title></rect><rect x="0" y="249.8861788617887" height="13.62601626016263" width="5" fill="black"><title>cheetah: 4</title></rect><rect x="367" y="101.34552845528458" height="13.6260162601626" width="5" fill="black"><title>Acinonyx: 4</title></rect><rect x="0" y="268.5121951219513" height="13.6260162601626" width="5" fill="black"><title>black-footed cat: 4</title></rect><rect x="0" y="287.1382113821139" height="13.6260162601626" width="5" fill="black"><title>Kodkod: 4</title></rect><rect x="0" y="305.7642276422765" height="13.6260162601626" width="5" fill="black"><title>Southern oncilla: 4</title></rect><rect x="0" y="324.3902439024391" height="13.6260162601626" width="5" fill="black"><title>little spotted cat: 4</title></rect><rect x="0" y="343.0162601626017" height="13.6260162601626" width="5" fill="black"><title>fishing cat: 4</title></rect><rect x="0" y="361.6422764227643" height="13.6260162601626" width="5" fill="black"><title>African golden cat: 4</title></rect><rect x="367" y="119.97154471544718" height="13.6260162601626" width="5" fill="black"><title>Profelis: 4</title></rect><rect x="367" y="138.59756097560978" height="13.6260162601626" width="5" fill="black"><title>Puma: 4</title></rect><rect x="0" y="380.2682926829269" height="13.6260162601626" width="5" fill="black"><title>Sunda clouded leopard: 4</title></rect><rect x="0" y="398.8943089430895" height="13.6260162601626" width="5" fill="black"><title>Clouded leopard: 4</title></rect><rect x="0" y="417.5203252032521" height="13.6260162601626" width="5" fill="black"><title>lion: 4</title></rect><rect x="0" y="436.14634146341473" height="13.6260162601626" width="5" fill="black"><title>leopard: 4</title></rect><rect x="0" y="454.77235772357733" height="13.6260162601626" width="5" fill="black"><title>snow leopard: 4</title></rect><rect x="734" y="87.5" height="13.6260162601626" width="5" fill="black"><title>Acinonychinae: 4</title></rect><rect x="0" y="473.39837398373993" height="17.032520325203222" width="5" fill="black"><title>bay cat: 5</title></rect><rect x="0" y="495.43089430894315" height="17.032520325203222" width="5" fill="black"><title>Andean mountain cat: 5</title></rect><rect x="0" y="517.4634146341464" height="17.032520325203222" width="5" fill="black"><title>Spanish lynx: 5</title></rect><rect x="0" y="539.4959349593496" height="17.032520325203222" width="5" fill="black"><title>flat-headed cat: 5</title></rect><rect x="0" y="561.5284552845528" height="17.032520325203222" width="5" fill="black"><title>tiger: 5</title></rect><rect x="0" y="583.560975609756" height="20.439024390243958" width="5" fill="black"><title>Iriomote cat: 6</title></rect><rect x="367" y="157.22357723577238" height="27.2520325203252" width="5" fill="black"><title>Catopuma: 8</title></rect><rect x="367" y="189.47560975609758" height="27.2520325203252" width="5" fill="black"><title>Neofelis: 8</title></rect><rect x="367" y="221.72764227642278" height="34.0650406504065" width="5" fill="black"><title>Felis: 10</title></rect><rect x="367" y="260.7926829268293" height="37.47154471544718" width="5" fill="black"><title>Lynx: 11</title></rect><rect x="367" y="303.26422764227647" height="68.130081300813" width="5" fill="black"><title>Prionailurus: 20</title></rect><rect x="367" y="376.39430894308947" height="68.13008130081295" width="5" fill="black"><title>Panthera: 20</title></rect><rect x="367" y="449.5243902439024" height="91.97560975609758" width="5" fill="black"><title>Leopardus: 27</title></rect><rect x="734" y="106.1260162601626" height="105.60162601626018" width="5" fill="black"><title>Pantherinae: 31</title></rect><rect x="734" y="216.72764227642278" height="299.7723577235772" width="5" fill="black"><title>Felinae: 88</title></rect></g><g fill="none" stroke-opacity="1"><g style="mix-blend-mode: multiply;"><path d="M5,256.69918699187C186,256.69918699187,186,108.15853658536588,367,108.15853658536588" stroke="rgb(224, 243, 161)" stroke-width="13.626016260162602"/><title>cheetah → Acinonyx: 4</title></g><g style="mix-blend-mode: multiply;"><path d="M5,481.91463414634154C186,481.91463414634154,186,175.95934959349597,367,175.95934959349597" stroke="rgb(244, 249, 173)" stroke-width="17.032520325203254"/><title>bay cat → Catopuma: 5</title></g><g style="mix-blend-mode: multiply;"><path d="M5,163.6788617886179C186,163.6788617886179,186,162.33333333333337,367,162.33333333333337" stroke="rgb(252, 172, 99)" stroke-width="10.219512195121952"/><title>Asiatic golden cat → Catopuma: 3</title></g><g style="mix-blend-mode: multiply;"><path d="M5,1.7032520325203253C186,1.7032520325203253,186,223.43089430894312,367,223.43089430894312" stroke="rgb(215, 239, 159)" stroke-width="3.4065040650406506"/><title>domestic cat → Felis: 1</title></g><g style="mix-blend-mode: multiply;"><path d="M5,20.21951219512195C186,20.21951219512195,186,231.94715447154474,367,231.94715447154474" stroke="rgb(156, 215, 163)" stroke-width="6.813008130081301"/><title>jungle cat → Felis: 2</title></g><g style="mix-blend-mode: multiply;"><path d="M5,32.03252032520325C186,32.03252032520325,186,238.76016260162604,367,238.76016260162604" stroke="rgb(67, 125, 179)" stroke-width="6.813008130081301"/><title>sand cat → Felis: 2</title></g><g style="mix-blend-mode: multiply;"><path d="M5,275.3252032520326C186,275.3252032520326,186,248.979674796748,367,248.979674796748" stroke="rgb(238, 248, 168)" stroke-width="13.626016260162602"/><title>black-footed cat → Felis: 4</title></g><g style="mix-blend-mode: multiply;"><path d="M5,10.109756097560975C186,10.109756097560975,186,226.83739837398377,367,226.83739837398377" stroke="rgb(94, 79, 162)" stroke-width="3.4065040650406506"/><title>wild cat → Felis: 1</title></g><g style="mix-blend-mode: multiply;"><path d="M5,178.89837398373984C186,178.89837398373984,186,468.260162601626,367,468.260162601626" stroke="rgb(254, 203, 123)" stroke-width="10.219512195121952"/><title>Colocolo → Leopardus: 3</title></g><g style="mix-blend-mode: multiply;"><path d="M5,43.84552845528455C186,43.84552845528455,186,452.9308943089431,367,452.9308943089431" stroke="rgb(254, 221, 141)" stroke-width="6.813008130081301"/><title>Geoffroy's cat → Leopardus: 2</title></g><g style="mix-blend-mode: multiply;"><path d="M5,293.9512195121952C186,293.9512195121952,186,490.4024390243903,367,490.4024390243903" stroke="rgb(254, 235, 159)" stroke-width="13.626016260162602"/><title>Kodkod → Leopardus: 4</title></g><g style="mix-blend-mode: multiply;"><path d="M5,312.5772357723578C186,312.5772357723578,186,504.0284552845529,367,504.0284552845529" stroke="rgb(253, 245, 173)" stroke-width="13.626016260162602"/><title>Southern oncilla → Leopardus: 4</title></g><g style="mix-blend-mode: multiply;"><path d="M5,503.94715447154476C186,503.94715447154476,186,532.9837398373984,367,532.9837398373984" stroke="rgb(250, 160, 92)" stroke-width="17.032520325203254"/><title>Andean mountain cat → Leopardus: 5</title></g><g style="mix-blend-mode: multiply;"><path d="M5,55.65853658536585C186,55.65853658536585,186,459.7439024390244,367,459.7439024390244" stroke="rgb(74, 159, 178)" stroke-width="6.813008130081301"/><title>ocelot → Leopardus: 2</title></g><g style="mix-blend-mode: multiply;"><path d="M5,331.2032520325204C186,331.2032520325204,186,517.6544715447155,367,517.6544715447155" stroke="rgb(105, 189, 169)" stroke-width="13.626016260162602"/><title>little spotted cat → Leopardus: 4</title></g><g style="mix-blend-mode: multiply;"><path d="M5,194.1178861788618C186,194.1178861788618,186,478.479674796748,367,478.479674796748" stroke="rgb(83, 170, 175)" stroke-width="10.219512195121952"/><title>margay → Leopardus: 3</title></g><g style="mix-blend-mode: multiply;"><path d="M5,67.47154471544715C186,67.47154471544715,186,65.90650406504065,367,65.90650406504065" stroke="rgb(71, 113, 176)" stroke-width="6.813008130081301"/><title>serval → Leptailurus: 2</title></g><g style="mix-blend-mode: multiply;"><path d="M5,79.28455284552845C186,79.28455284552845,186,264.19918699186996,367,264.19918699186996" stroke="rgb(253, 183, 106)" stroke-width="6.813008130081301"/><title>Canada lynx → Lynx: 2</title></g><g style="mix-blend-mode: multiply;"><path d="M5,91.09756097560975C186,91.09756097560975,186,271.01219512195127,367,271.01219512195127" stroke="rgb(254, 212, 131)" stroke-width="6.813008130081301"/><title>Eurasian lynx → Lynx: 2</title></g><g style="mix-blend-mode: multiply;"><path d="M5,525.979674796748C186,525.979674796748,186,289.7479674796748,367,289.7479674796748" stroke="rgb(251, 248, 176)" stroke-width="17.032520325203254"/><title>Spanish lynx → Lynx: 5</title></g><g style="mix-blend-mode: multiply;"><path d="M5,102.91056910569105C186,102.91056910569105,186,277.82520325203257,367,277.82520325203257" stroke="rgb(232, 246, 164)" stroke-width="6.813008130081301"/><title>bobcat → Lynx: 2</title></g><g style="mix-blend-mode: multiply;"><path d="M5,114.72357723577235C186,114.72357723577235,186,77.71951219512195,367,77.71951219512195" stroke="rgb(254, 241, 167)" stroke-width="6.813008130081301"/><title>Pallas's cat → Otocolobus: 2</title></g><g style="mix-blend-mode: multiply;"><path d="M5,126.53658536585365C186,126.53658536585365,186,306.67073170731715,367,306.67073170731715" stroke="rgb(130, 204, 165)" stroke-width="6.813008130081301"/><title>leopard cat → Prionailurus: 2</title></g><g style="mix-blend-mode: multiply;"><path d="M5,593.780487804878C186,593.780487804878,186,361.1747967479676,367,361.1747967479676" stroke="rgb(254, 229, 150)" stroke-width="20.439024390243905"/><title>Iriomote cat → Prionailurus: 6</title></g><g style="mix-blend-mode: multiply;"><path d="M5,548.0121951219512C186,548.0121951219512,186,342.43902439024396,367,342.43902439024396" stroke="rgb(194, 230, 159)" stroke-width="17.032520325203254"/><title>flat-headed cat → Prionailurus: 5</title></g><g style="mix-blend-mode: multiply;"><path d="M5,209.33739837398375C186,209.33739837398375,186,315.18699186991876,367,315.18699186991876" stroke="rgb(66, 136, 181)" stroke-width="10.219512195121952"/><title>rusty-spotted cat → Prionailurus: 3</title></g><g style="mix-blend-mode: multiply;"><path d="M5,349.829268292683C186,349.829268292683,186,327.10975609756105,367,327.10975609756105" stroke="rgb(205, 235, 159)" stroke-width="13.626016260162602"/><title>fishing cat → Prionailurus: 4</title></g><g style="mix-blend-mode: multiply;"><path d="M5,368.4552845528456C186,368.4552845528456,186,126.78455284552848,367,126.78455284552848" stroke="rgb(249, 148, 86)" stroke-width="13.626016260162602"/><title>African golden cat → Profelis: 4</title></g><g style="mix-blend-mode: multiply;"><path d="M5,138.34959349593495C186,138.34959349593495,186,142.00406504065043,367,142.00406504065043" stroke="rgb(69, 148, 180)" stroke-width="6.813008130081301"/><title>puma → Puma: 2</title></g><g style="mix-blend-mode: multiply;"><path d="M5,150.16260162601625C186,150.16260162601625,186,148.81707317073173,367,148.81707317073173" stroke="rgb(169, 221, 162)" stroke-width="6.813008130081301"/><title>jaguarundi → Puma: 2</title></g><g style="mix-blend-mode: multiply;"><path d="M5,387.0813008130082C186,387.0813008130082,186,196.28861788617888,367,196.28861788617888" stroke="rgb(248, 249, 176)" stroke-width="13.626016260162602"/><title>Sunda clouded leopard → Neofelis: 4</title></g><g style="mix-blend-mode: multiply;"><path d="M5,405.7073170731708C186,405.7073170731708,186,209.91463414634148,367,209.91463414634148" stroke="rgb(253, 193, 114)" stroke-width="13.626016260162602"/><title>Clouded leopard → Neofelis: 4</title></g><g style="mix-blend-mode: multiply;"><path d="M5,424.3333333333334C186,424.3333333333334,186,393.42682926829275,367,393.42682926829275" stroke="rgb(117, 197, 167)" stroke-width="13.626016260162602"/><title>lion → Panthera: 4</title></g><g style="mix-blend-mode: multiply;"><path d="M5,224.55691056910572C186,224.55691056910572,186,381.50406504065046,367,381.50406504065046" stroke="rgb(182, 226, 161)" stroke-width="10.219512195121952"/><title>jaguar → Panthera: 3</title></g><g style="mix-blend-mode: multiply;"><path d="M5,442.95934959349603C186,442.95934959349603,186,407.05284552845535,367,407.05284552845535" stroke="rgb(143, 210, 164)" stroke-width="13.626016260162602"/><title>leopard → Panthera: 4</title></g><g style="mix-blend-mode: multiply;"><path d="M5,570.0447154471544C186,570.0447154471544,186,436.00813008130086,367,436.00813008130086" stroke="rgb(85, 90, 167)" stroke-width="17.032520325203254"/><title>tiger → Panthera: 5</title></g><g style="mix-blend-mode: multiply;"><path d="M5,461.58536585365863C186,461.58536585365863,186,420.67886178861795,367,420.67886178861795" stroke="rgb(77, 102, 172)" stroke-width="13.626016260162602"/><title>snow leopard → Panthera: 4</title></g><g style="mix-blend-mode: multiply;"><path d="M5,239.7764227642277C186,239.7764227642277,186,91.23577235772358,367,91.23577235772358" stroke="rgb(93, 180, 172)" stroke-width="10.219512195121952"/><title>marbled cat → Pardofelis: 3</title></g><g style="mix-blend-mode: multiply;"><path d="M372,108.15853658536588C553,108.15853658536588,553,94.3130081300813,734,94.3130081300813" stroke="rgb(158, 1, 66)" stroke-width="13.626016260162602"/><title>Acinonyx → Acinonychinae: 4</title></g><g style="mix-blend-mode: multiply;"><path d="M372,170.84959349593498C553,170.84959349593498,553,271.2317073170732,734,271.2317073170732" stroke="rgb(169, 13, 69)" stroke-width="27.252032520325205"/><title>Catopuma → Felinae: 8</title></g><g style="mix-blend-mode: multiply;"><path d="M372,238.76016260162604C553,238.76016260162604,553,301.89024390243907,734,301.89024390243907" stroke="rgb(180, 25, 71)" stroke-width="34.06504065040651"/><title>Felis → Felinae: 10</title></g><g style="mix-blend-mode: multiply;"><path d="M372,495.5121951219512C553,495.5121951219512,553,470.51219512195127,734,470.51219512195127" stroke="rgb(190, 37, 73)" stroke-width="91.97560975609757"/><title>Leopardus → Felinae: 27</title></g><g style="mix-blend-mode: multiply;"><path d="M372,65.90650406504065C553,65.90650406504065,553,220.13414634146343,734,220.13414634146343" stroke="rgb(200, 49, 74)" stroke-width="6.813008130081301"/><title>Leptailurus → Felinae: 2</title></g><g style="mix-blend-mode: multiply;"><path d="M372,279.5284552845529C553,279.5284552845529,553,337.6585365853659,734,337.6585365853659" stroke="rgb(209, 60, 75)" stroke-width="37.47154471544716"/><title>Lynx → Felinae: 11</title></g><g style="mix-blend-mode: multiply;"><path d="M372,77.71951219512195C553,77.71951219512195,553,226.94715447154474,734,226.94715447154474" stroke="rgb(224, 80, 74)" stroke-width="6.813008130081301"/><title>Otocolobus → Felinae: 2</title></g><g style="mix-blend-mode: multiply;"><path d="M372,337.32926829268297C553,337.32926829268297,553,390.459349593496,734,390.459349593496" stroke="rgb(240, 112, 74)" stroke-width="68.13008130081302"/><title>Prionailurus → Felinae: 20</title></g><g style="mix-blend-mode: multiply;"><path d="M372,126.78455284552848C553,126.78455284552848,553,237.16666666666669,734,237.16666666666669" stroke="rgb(244, 124, 77)" stroke-width="13.626016260162602"/><title>Profelis → Felinae: 4</title></g><g style="mix-blend-mode: multiply;"><path d="M372,145.41056910569108C553,145.41056910569108,553,250.7926829268293,734,250.7926829268293" stroke="rgb(247, 135, 81)" stroke-width="13.626016260162602"/><title>Puma → Felinae: 4</title></g><g style="mix-blend-mode: multiply;"><path d="M372,203.10162601626018C553,203.10162601626018,553,129.97154471544715,734,129.97154471544715" stroke="rgb(217, 70, 75)" stroke-width="27.252032520325205"/><title>Neofelis → Pantherinae: 8</title></g><g style="mix-blend-mode: multiply;"><path d="M372,410.459349593496C553,410.459349593496,553,177.66260162601625,734,177.66260162601625" stroke="rgb(231, 91, 73)" stroke-width="68.13008130081302"/><title>Panthera → Pantherinae: 20</title></g><g style="mix-blend-mode: multiply;"><path d="M372,91.23577235772358C553,91.23577235772358,553,111.23577235772358,734,111.23577235772358" stroke="rgb(236, 101, 73)" stroke-width="10.219512195121952"/><title>Pardofelis → Pantherinae: 3</title></g></g><g><text x="9" y="1.703252032520325" text-anchor="start"><tspan alignment-baseline="middle" x="9" style="font-family: Arial, sans-serif; font-size: 10px; fill: black; font-weight: bold;">domestic cat</tspan></text><text x="9" y="10.109756097560975" text-anchor="start"><tspan alignment-baseline="middle" x="9" style="font-family: Arial, sans-serif; font-size: 10px; fill: black; font-weight: bold;">wild cat</tspan></text><text x="9" y="20.21951219512195" text-anchor="start"><tspan alignment-baseline="middle" x="9" style="font-family: Arial, sans-serif; font-size: 10px; fill: black; font-weight: bold;">jungle cat</tspan></text><text x="9" y="32.03252032520325" text-anchor="start"><tspan alignment-baseline="middle" x="9" style="font-family: Arial, sans-serif; font-size: 10px; fill: black; font-weight: bold;">sand cat</tspan></text><text x="9" y="43.84552845528455" text-anchor="start"><tspan alignment-baseline="middle" x="9" style="font-family: Arial, sans-serif; font-size: 10px; fill: black; font-weight: bold;">Geoffroy's cat</tspan></text><text x="9" y="55.65853658536585" text-anchor="start"><tspan alignment-baseline="middle" x="9" style="font-family: Arial, sans-serif; font-size: 10px; fill: black; font-weight: bold;">ocelot</tspan></text><text x="9" y="67.47154471544715" text-anchor="start"><tspan alignment-baseline="middle" x="9" style="font-family: Arial, sans-serif; font-size: 10px; fill: black; font-weight: bold;">serval</tspan></text><text x="376" y="65.90650406504065" text-anchor="start"><tspan alignment-baseline="middle" x="376" style="font-family: Arial, sans-serif; font-size: 10px; fill: black; font-weight: bold;">Leptailurus</tspan></text><text x="9" y="79.28455284552845" text-anchor="start"><tspan alignment-baseline="middle" x="9" style="font-family: Arial, sans-serif; font-size: 10px; fill: black; font-weight: bold;">Canada lynx</tspan></text><text x="9" y="91.09756097560975" text-anchor="start"><tspan alignment-baseline="middle" x="9" style="font-family: Arial, sans-serif; font-size: 10px; fill: black; font-weight: bold;">Eurasian lynx</tspan></text><text x="9" y="102.91056910569105" text-anchor="start"><tspan alignment-baseline="middle" x="9" style="font-family: Arial, sans-serif; font-size: 10px; fill: black; font-weight: bold;">bobcat</tspan></text><text x="9" y="114.72357723577235" text-anchor="start"><tspan alignment-baseline="middle" x="9" style="font-family: Arial, sans-serif; font-size: 10px; fill: black; font-weight: bold;">Pallas's cat</tspan></text><text x="376" y="77.71951219512195" text-anchor="start"><tspan alignment-baseline="middle" x="376" style="font-family: Arial, sans-serif; font-size: 10px; fill: black; font-weight: bold;">Otocolobus</tspan></text><text x="9" y="126.53658536585365" text-anchor="start"><tspan alignment-baseline="middle" x="9" style="font-family: Arial, sans-serif; font-size: 10px; fill: black; font-weight: bold;">leopard cat</tspan></text><text x="9" y="138.34959349593495" text-anchor="start"><tspan alignment-baseline="middle" x="9" style="font-family: Arial, sans-serif; font-size: 10px; fill: black; font-weight: bold;">puma</tspan></text><text x="9" y="150.16260162601625" text-anchor="start"><tspan alignment-baseline="middle" x="9" style="font-family: Arial, sans-serif; font-size: 10px; fill: black; font-weight: bold;">jaguarundi</tspan></text><text x="9" y="163.6788617886179" text-anchor="start"><tspan alignment-baseline="middle" x="9" style="font-family: Arial, sans-serif; font-size: 10px; fill: black; font-weight: bold;">Asiatic golden cat</tspan></text><text x="9" y="178.89837398373982" text-anchor="start"><tspan alignment-baseline="middle" x="9" style="font-family: Arial, sans-serif; font-size: 10px; fill: black; font-weight: bold;">Colocolo</tspan></text><text x="9" y="194.1178861788618" text-anchor="start"><tspan alignment-baseline="middle" x="9" style="font-family: Arial, sans-serif; font-size: 10px; fill: black; font-weight: bold;">margay</tspan></text><text x="9" y="209.33739837398375" text-anchor="start"><tspan alignment-baseline="middle" x="9" style="font-family: Arial, sans-serif; font-size: 10px; fill: black; font-weight: bold;">rusty-spotted cat</tspan></text><text x="9" y="224.55691056910572" text-anchor="start"><tspan alignment-baseline="middle" x="9" style="font-family: Arial, sans-serif; font-size: 10px; fill: black; font-weight: bold;">jaguar</tspan></text><text x="9" y="239.7764227642277" text-anchor="start"><tspan alignment-baseline="middle" x="9" style="font-family: Arial, sans-serif; font-size: 10px; fill: black; font-weight: bold;">marbled cat</tspan></text><text x="376" y="91.23577235772359" text-anchor="start"><tspan alignment-baseline="middle" x="376" style="font-family: Arial, sans-serif; font-size: 10px; fill: black; font-weight: bold;">Pardofelis</tspan></text><text x="9" y="256.69918699187" text-anchor="start"><tspan alignment-baseline="middle" x="9" style="font-family: Arial, sans-serif; font-size: 10px; fill: black; font-weight: bold;">cheetah</tspan></text><text x="376" y="108.15853658536588" text-anchor="start"><tspan alignment-baseline="middle" x="376" style="font-family: Arial, sans-serif; font-size: 10px; fill: black; font-weight: bold;">Acinonyx</tspan></text><text x="9" y="275.3252032520326" text-anchor="start"><tspan alignment-baseline="middle" x="9" style="font-family: Arial, sans-serif; font-size: 10px; fill: black; font-weight: bold;">black-footed cat</tspan></text><text x="9" y="293.9512195121952" text-anchor="start"><tspan alignment-baseline="middle" x="9" style="font-family: Arial, sans-serif; font-size: 10px; fill: black; font-weight: bold;">Kodkod</tspan></text><text x="9" y="312.5772357723578" text-anchor="start"><tspan alignment-baseline="middle" x="9" style="font-family: Arial, sans-serif; font-size: 10px; fill: black; font-weight: bold;">Southern oncilla</tspan></text><text x="9" y="331.2032520325204" text-anchor="start"><tspan alignment-baseline="middle" x="9" style="font-family: Arial, sans-serif; font-size: 10px; fill: black; font-weight: bold;">little spotted cat</tspan></text><text x="9" y="349.829268292683" text-anchor="start"><tspan alignment-baseline="middle" x="9" style="font-family: Arial, sans-serif; font-size: 10px; fill: black; font-weight: bold;">fishing cat</tspan></text><text x="9" y="368.4552845528456" text-anchor="start"><tspan alignment-baseline="middle" x="9" style="font-family: Arial, sans-serif; font-size: 10px; fill: black; font-weight: bold;">African golden cat</tspan></text><text x="376" y="126.78455284552848" text-anchor="start"><tspan alignment-baseline="middle" x="376" style="font-family: Arial, sans-serif; font-size: 10px; fill: black; font-weight: bold;">Profelis</tspan></text><text x="376" y="145.41056910569108" text-anchor="start"><tspan alignment-baseline="middle" x="376" style="font-family: Arial, sans-serif; font-size: 10px; fill: black; font-weight: bold;">Puma</tspan></text><text x="9" y="387.0813008130082" text-anchor="start"><tspan alignment-baseline="middle" x="9" style="font-family: Arial, sans-serif; font-size: 10px; fill: black; font-weight: bold;">Sunda clouded leopard</tspan></text><text x="9" y="405.7073170731708" text-anchor="start"><tspan alignment-baseline="middle" x="9" style="font-family: Arial, sans-serif; font-size: 10px; fill: black; font-weight: bold;">Clouded leopard</tspan></text><text x="9" y="424.3333333333334" text-anchor="start"><tspan alignment-baseline="middle" x="9" style="font-family: Arial, sans-serif; font-size: 10px; fill: black; font-weight: bold;">lion</tspan></text><text x="9" y="442.95934959349603" text-anchor="start"><tspan alignment-baseline="middle" x="9" style="font-family: Arial, sans-serif; font-size: 10px; fill: black; font-weight: bold;">leopard</tspan></text><text x="9" y="461.58536585365863" text-anchor="start"><tspan alignment-baseline="middle" x="9" style="font-family: Arial, sans-serif; font-size: 10px; fill: black; font-weight: bold;">snow leopard</tspan></text><text x="730" y="94.3130081300813" text-anchor="end"><tspan alignment-baseline="middle" x="730" style="font-family: Arial, sans-serif; font-size: 10px; fill: black; font-weight: bold;">Acinonychinae</tspan></text><text x="9" y="481.91463414634154" text-anchor="start"><tspan alignment-baseline="middle" x="9" style="font-family: Arial, sans-serif; font-size: 10px; fill: black; font-weight: bold;">bay cat</tspan></text><text x="9" y="503.94715447154476" text-anchor="start"><tspan alignment-baseline="middle" x="9" style="font-family: Arial, sans-serif; font-size: 10px; fill: black; font-weight: bold;">Andean mountain cat</tspan></text><text x="9" y="525.979674796748" text-anchor="start"><tspan alignment-baseline="middle" x="9" style="font-family: Arial, sans-serif; font-size: 10px; fill: black; font-weight: bold;">Spanish lynx</tspan></text><text x="9" y="548.0121951219512" text-anchor="start"><tspan alignment-baseline="middle" x="9" style="font-family: Arial, sans-serif; font-size: 10px; fill: black; font-weight: bold;">flat-headed cat</tspan></text><text x="9" y="570.0447154471544" text-anchor="start"><tspan alignment-baseline="middle" x="9" style="font-family: Arial, sans-serif; font-size: 10px; fill: black; font-weight: bold;">tiger</tspan></text><text x="9" y="593.780487804878" text-anchor="start"><tspan alignment-baseline="middle" x="9" style="font-family: Arial, sans-serif; font-size: 10px; fill: black; font-weight: bold;">Iriomote cat</tspan></text><text x="376" y="170.84959349593498" text-anchor="start"><tspan alignment-baseline="middle" x="376" style="font-family: Arial, sans-serif; font-size: 10px; fill: black; font-weight: bold;">Catopuma</tspan></text><text x="376" y="203.10162601626018" text-anchor="start"><tspan alignment-baseline="middle" x="376" style="font-family: Arial, sans-serif; font-size: 10px; fill: black; font-weight: bold;">Neofelis</tspan></text><text x="376" y="238.76016260162604" text-anchor="start"><tspan alignment-baseline="middle" x="376" style="font-family: Arial, sans-serif; font-size: 10px; fill: black; font-weight: bold;">Felis</tspan></text><text x="376" y="279.5284552845529" text-anchor="start"><tspan alignment-baseline="middle" x="376" style="font-family: Arial, sans-serif; font-size: 10px; fill: black; font-weight: bold;">Lynx</tspan></text><text x="376" y="337.32926829268297" text-anchor="start"><tspan alignment-baseline="middle" x="376" style="font-family: Arial, sans-serif; font-size: 10px; fill: black; font-weight: bold;">Prionailurus</tspan></text><text x="376" y="410.459349593496" text-anchor="start"><tspan alignment-baseline="middle" x="376" style="font-family: Arial, sans-serif; font-size: 10px; fill: black; font-weight: bold;">Panthera</tspan></text><text x="376" y="495.5121951219512" text-anchor="start"><tspan alignment-baseline="middle" x="376" style="font-family: Arial, sans-serif; font-size: 10px; fill: black; font-weight: bold;">Leopardus</tspan></text><text x="730" y="158.9268292682927" text-anchor="end"><tspan alignment-baseline="middle" x="730" style="font-family: Arial, sans-serif; font-size: 10px; fill: black; font-weight: bold;">Pantherinae</tspan></text><text x="730" y="366.6138211382114" text-anchor="end"><tspan alignment-baseline="middle" x="730" style="font-family: Arial, sans-serif; font-size: 10px; fill: black; font-weight: bold;">Felinae</tspan></text></g><g><text x="2.5" y="-4" text-anchor="middle" style="font-family: Arial, sans-serif; font-size: 12px; fill: rgb(123, 123, 123); font-weight: bold;">Name</text><text x="369.5" y="58.5" text-anchor="middle" style="font-family: Arial, sans-serif; font-size: 12px; fill: rgb(123, 123, 123); font-weight: bold;">Genus</text><text x="736.5" y="83.5" text-anchor="middle" style="font-family: Arial, sans-serif; font-size: 12px; fill: rgb(123, 123, 123); font-weight: bold;">Subfamily</text></g></g></svg>